<?xml version="1.0" encoding="utf-8"?>
<!-- Generator: Adobe Illustrator 27.9.0, SVG Export Plug-In . SVG Version: 6.00 Build 0)  -->
<svg version="1.1" id="Layer_1" xmlns="http://www.w3.org/2000/svg" xmlns:xlink="http://www.w3.org/1999/xlink" x="0px" y="0px"
	 viewBox="0 0 64 64" style="enable-background:new 0 0 64 64;" xml:space="preserve">
<style type="text/css">
	.st0{fill:#FFFFFF;}
</style>
<path class="st0" d="M44.86,11.29c-0.25-1.97-2.54-3.77-3.61-1.29c-1.09,2.92-0.27,6.04-0.59,9.05c-0.11,0.34-0.14,1.05-0.64,0.98
	c-0.46-0.19-0.14-0.96-0.15-1.35c0.45-2.41,0.25-4.87,0.37-7.31c-0.02-1.86,0.33-3.76-0.14-5.59c-0.36-1.97-3.19-2.83-4.23-0.68
	c-0.33,0.72-0.4,1.54-0.46,2.32c-0.06,2.72,0.09,5.44,0.15,8.16c0,1.17,0.06,2.51-0.41,3.61c-0.11,0.26-0.3,0.59-0.59,0.67
	c-0.32,0.09-0.25-1.03-0.25-1.18c0.07-2.11,0-4.21-0.05-6.31c-0.03-1.19,0.01-2.37,0-3.56c-0.02-1.81,0.2-3.72-0.65-5.38
	c-1.73-3.02-4.45-0.76-4.23,1.99c0.05,2.42,0.23,4.83,0.33,7.25c0.1,2.41,0.03,4.81-0.12,7.21c-0.01,0.2-0.05,0.81-0.4,0.66
	c-0.28-0.13-0.22-0.83-0.24-1.07c-0.06-0.92-0.05-1.83-0.09-2.75c-0.05-1.23-0.09-2.45-0.12-3.68c-0.02-0.75-0.04-1.5-0.06-2.25
	c-0.02-0.73,0.03-1.48-0.04-2.21c-0.09-0.97-0.04-2.08-0.67-2.89c-0.59-0.73-1.59-1.09-2.45-0.15c-1.16,1.11-0.94,2.73-0.86,4.19
	c0.06,1.14,0.08,2.29,0.09,3.43c0.02,1.38,0.03,2.77,0.06,4.15c0.03,1.19,0.05,2.37,0.13,3.56c0,0.2,0.03,0.4,0.04,0.6
	c0.01,0.2,0.03,0.41,0.04,0.61c0.03,0.41,0.06,0.82,0.09,1.23c0.03,0.37,0.06,0.74,0.08,1.11c0.02,0.46-0.01,0.91-0.15,1.34
	c-0.03,0.08-0.07,0.32-0.18,0.32c-0.09,0-0.14-0.13-0.17-0.2c-0.11-0.24-0.19-0.51-0.27-0.76c-0.12-0.37-0.26-0.73-0.35-1.11
	c-0.09-0.39-0.14-0.78-0.17-1.17c-0.03-0.29-0.04-0.59-0.06-0.88c-0.09-1.43-0.13-2.87-0.32-4.29c-0.11-1.29-1.61-2.82-2.86-1.81
	c-1.47,1.37-1.62,3.62-1.75,5.51c-0.11,4.69,0.76,9.36,1.93,13.88c0.5,2.03,1.26,4.03,2.69,5.6c0.65,0.72,1.48,1.26,2.36,1.64
	c1.19,0.51,2.5,0.77,3.78,0.89c1.11,0.1,2.22,0.04,3.34,0.01c0.36-0.01,0.74-0.1,1.1-0.14c0.38-0.04,0.76-0.08,1.14-0.12
	c0.77-0.08,1.54-0.17,2.3-0.33c1.96-0.41,3.72-1.39,4.67-3.21c0.53-1.01,0.82-2.12,1-3.24c0.29-1.76,0.33-3.56,0.42-5.34
	c0-0.09,0.01-0.18,0.01-0.27c0.26-3.98,0.52-7.96,0.96-11.93C44.8,16.32,45.47,13.78,44.86,11.29z"/>
</svg>
